<svg xmlns="http://www.w3.org/2000/svg" viewBox="-0.1 -0.1 25.8 25.8">

  <path style="fill:#e3eef7;stroke-width:0.05" d="M 11.625,25.54358 C 9.255653,25.317671 7.002406,24.440523 5.0544,22.985766 4.4373995,22.524995 3.0750054,21.1626 2.6142337,20.5456 -0.86576925,15.88567 -0.86576925,9.71433 2.6142337,5.0544 3.0750054,4.4373995 4.4373995,3.0750054 5.0544,2.6142337 c 4.65993,-3.48000295 10.83127,-3.48000295 15.4912,0 0.617001,0.4607717 1.979395,1.8231658 2.440167,2.4401663 3.480003,4.65993 3.480003,10.83127 0,15.4912 -0.460772,0.617001 -1.823166,1.979395 -2.440167,2.440167 -2.598915,1.940851 -5.791229,2.856187 -8.9206,2.557813 z m 2.376312,-2.144863 c 2.431661,-0.294328 4.600592,-1.347865 6.325066,-3.072339 1.724474,-1.724474 2.778011,-3.893405 3.072339,-6.325066 0.06596,-0.544984 0.06596,-1.85764 0,-2.402623 C 23.104389,9.167027 22.050852,6.9980965 20.326378,5.273622 18.601904,3.5491478 16.432973,2.4956109 14.001312,2.2012832 c -0.544984,-0.065965 -1.85764,-0.065965 -2.402623,0 C 9.167027,2.4956109 6.9980965,3.5491478 5.273622,5.273622 3.5491478,6.9980965 2.4956109,9.167027 2.2012832,11.598689 c -0.065965,0.544983 -0.065965,1.857639 0,2.402623 0.2943277,2.431661 1.3478646,4.600592 3.0723388,6.325066 1.700222,1.700222 3.878719,2.769024 6.251378,3.067015 0.498852,0.06265 1.976433,0.06583 2.476312,0.0053 z M 11.780683,22.342685 C 9.290632,22.12321 6.876174,20.937937 5.093285,19.059799 l -0.4817147,-0.50745 0.071741,-0.388674 c 0.289799,-1.570052 1.0796634,-2.858727 2.3993954,-3.914649 0.5232085,-0.41862 0.785914,-0.552087 1.8637285,-0.946861 0.53429,-0.195696 1.0546328,-0.40257 1.1563178,-0.45972 l 0.184882,-0.103909 -0.250786,-0.531667 C 9.895297,11.90678 9.6901875,11.566266 9.565948,11.425101 9.232664,11.046413 9.0418035,10.622058 9.010975,10.191184 8.986278,9.84601 8.970382,9.8085925 8.617619,9.26526 8.4154285,8.953842 8.250003,8.6711355 8.250007,8.637023 8.2500105,8.6029105 8.305923,8.395 8.3742565,8.175 8.44259,7.955 8.498837,7.749612 8.4992495,7.7185825 c 4e-4,-0.031029 -0.280486,-0.153668 -0.624219,-0.27253 C 7.531297,7.32719 7.26767,7.21233 7.2891925,7.1908075 7.3107155,7.1692845 7.6088265,7.0030315 7.9516625,6.8213555 8.294498,6.63968 8.589489,6.476178 8.6071975,6.458018 8.624906,6.439858 8.4176345,6.1110215 8.146594,5.72727 7.8755535,5.3435185 7.6587145,5.024619 7.664729,5.0186045 7.6707435,5.01259 8.103015,5.062078 8.6253325,5.1285785 9.1476495,5.195079 9.60875,5.24942 9.65,5.2493365 9.6989815,5.2492365 9.8182145,5.02381 9.9936955,4.5995296 l 0.2686955,-0.649655 0.481305,0.2599028 c 0.264717,0.1429465 0.541727,0.2944272 0.615576,0.3366239 0.07385,0.042197 0.143615,0.065893 0.155033,0.05266 0.01142,-0.013234 0.252095,-0.3337203 0.534836,-0.7121926 l 0.514076,-0.6881315 0.394059,0.5631315 c 0.216733,0.3097223 0.434823,0.6183918 0.484646,0.6859323 l 0.09059,0.1228009 0.246245,-0.1047408 C 13.91419,4.4082536 14.278125,4.2472289 14.5875,4.1080282 L 15.15,3.8549361 v 0.6009014 c 0,0.548414 0.0076,0.598732 0.0875,0.5760675 0.268281,-0.076141 1.666083,-0.3449884 1.686666,-0.3244057 0.01342,0.013424 -0.07934,0.3347807 -0.206152,0.7141267 -0.171826,0.5140185 -0.214997,0.699337 -0.169468,0.7274755 0.0336,0.020766 0.373922,0.156196 0.756272,0.3009555 C 17.687168,6.5948165 18,6.7276225 18,6.7451815 c 0,0.017559 -0.23625,0.2318795 -0.525,0.476268 -0.28875,0.244388 -0.525,0.4637385 -0.525,0.487445 0,0.023707 0.101875,0.245949 0.226388,0.4938705 l 0.226389,0.450767 -0.394311,0.565413 c -0.394282,0.5653705 -0.394314,0.5654425 -0.418783,0.946727 -0.02877,0.448349 -0.204133,0.849742 -0.558795,1.279059 -0.122554,0.148352 -0.261686,0.373352 -0.309182,0.5 -0.0475,0.126648 -0.150101,0.358093 -0.228011,0.514322 l -0.141654,0.284053 0.172204,0.106428 c 0.09471,0.05853 0.625159,0.271894 1.17877,0.47413 1.109852,0.405432 1.512666,0.633978 2.186314,1.240455 1.097154,0.987752 1.764046,2.173444 2.028769,3.607024 l 0.07315,0.396142 -0.683125,0.682235 c -0.375719,0.375229 -0.881904,0.829803 -1.124856,1.010164 -2.15079,1.596688 -4.719494,2.319491 -7.402586,2.083001 z m 1.862525,-1.268208 c 1.047279,-0.06472 2.414598,-0.459975 3.431792,-0.992052 l 0.6,-0.313849 v -1.528301 -1.528302 l 0.346326,-0.03216 c 0.254986,-0.02368 0.356984,-0.01536 0.386735,0.03151 0.02222,0.03502 0.04075,0.610827 0.04117,1.279574 l 7.65e-4,1.215906 0.162501,-0.111642 c 0.08938,-0.0614 0.449091,-0.397737 0.799369,-0.74741 l 0.63687,-0.635768 -0.09868,-0.286806 c -0.268251,-0.7797 -0.682322,-1.427065 -1.338336,-2.092381 -0.52963,-0.537141 -1.08225,-0.894139 -1.800252,-1.162981 L 16.225,13.950223 16.13885,14.053987 c -0.04738,0.05707 -0.126134,0.157046 -0.174999,0.222169 L 15.875,14.394562 15.728772,14.275943 15.582544,14.157325 15.715767,13.982661 15.84899,13.807997 15.636995,13.73622 15.425,13.664443 15.043905,14.026626 c -1.310319,1.245292 -3.291627,1.218792 -4.600647,-0.06153 -0.253991,-0.248424 -0.297028,-0.272209 -0.436927,-0.241483 -0.1817545,0.03992 -0.2360275,0.105362 -0.1616775,0.194949 0.039995,0.04819 0.014455,0.09287 -0.102539,0.179366 -0.12644,0.09348 -0.1636655,0.102175 -0.1975335,0.04613 -0.1278975,-0.211638 -0.1088065,-0.211773 -0.700457,0.005 -0.7857745,0.287855 -1.216899,0.567636 -1.846067,1.198017 -0.6764925,0.677798 -1.08087,1.301367 -1.34865,2.079684 l -0.098146,0.285266 0.6368695,0.635768 C 6.5384085,18.697466 6.898125,19.0338 6.9875,19.095203 L 7.15,19.206807 v -1.253405 -1.253404 h 0.3209105 c 0.176501,0 0.350876,0.01148 0.3875,0.0255 0.053622,0.02053 0.063429,0.271258 0.050359,1.2875 -0.00893,0.6941 -0.00178,1.379378 0.01589,1.522839 l 0.032121,0.26084 0.65911,0.326155 c 0.7602025,0.376179 1.6285295,0.676228 2.3942365,0.827323 0.557871,0.110083 1.552484,0.196877 1.939873,0.169281 0.12375,-0.0088 0.435694,-0.02905 0.693208,-0.04496 z m -0.567976,-5.423424 c -0.01911,-0.08701 -0.01951,-0.17344 -8.9e-4,-0.192061 0.01862,-0.01862 0.180406,-0.05784 0.35952,-0.08715 0.319071,-0.05222 0.326579,-0.05089 0.3709,0.06569 0.07868,0.206945 0.05418,0.248316 -0.167263,0.282424 -0.116874,0.018 -0.28338,0.04546 -0.37001,0.06102 -0.144709,0.02599 -0.160335,0.01543 -0.192258,-0.129916 z M 11.975,15.723746 c -0.0275,-0.0101 -0.144278,-0.04258 -0.259508,-0.07217 -0.208961,-0.05367 -0.209366,-0.05424 -0.155077,-0.215194 0.02994,-0.08876 0.05877,-0.167186 0.06408,-0.174284 0.0053,-0.0071 0.166037,0.02241 0.357178,0.06558 l 0.347529,0.07848 -0.02007,0.171923 c -0.01736,0.148703 -0.0379,0.171391 -0.152101,0.167976 -0.07262,-0.0022 -0.15453,-0.01221 -0.18203,-0.02231 z m 2.550916,-0.521974 -0.07665,-0.148228 0.276338,-0.176772 C 14.877589,14.779548 15.020518,14.7 15.043222,14.7 c 0.07992,0 0.218566,0.197163 0.190349,0.270695 -0.0263,0.06853 -0.511799,0.377761 -0.594787,0.378836 -0.01992,2.5e-4 -0.07071,-0.06623 -0.112868,-0.147759 z M 10.45,15.043085 c -0.15125,-0.113567 -0.282606,-0.212952 -0.291903,-0.220855 -0.0093,-0.0079 0.03314,-0.08205 0.0943,-0.164783 l 0.111206,-0.150414 0.280697,0.206969 c 0.154384,0.113832 0.287981,0.211409 0.296884,0.216837 0.02825,0.01722 -0.142134,0.319171 -0.179971,0.318946 -0.01992,-10e-5 -0.159966,-0.09313 -0.311216,-0.2067 z m 2.947924,-1.437696 c 0.896808,-0.34076 1.623757,-1.494301 1.949731,-3.093881 C 15.507967,9.724846 15.539341,9.8042575 14.819622,9.175 14.473635,8.8725 14.169108,8.6171425 14.142896,8.6075395 14.116683,8.597936 13.624448,9.053561 13.04904,9.6200395 12.473631,10.186518 11.983336,10.65 11.959495,10.65 c -0.02384,0 -0.08344,-0.376875 -0.132437,-0.8375 -0.049,-0.460625 -0.103477,-0.86442 -0.121062,-0.8973225 -0.03438,-0.064319 -1.369566,1.3702565 -1.396115,1.5000345 -0.02544,0.124368 0.179869,0.872668 0.362003,1.31941 0.366456,0.898847 0.984332,1.645588 1.537445,1.858096 0.349155,0.134147 0.854713,0.139536 1.188595,0.01267 z"/>

</svg>
