<svg width="0" height="0" class="hidden">
  <symbol xmlns="http://www.w3.org/2000/svg" viewBox="0 0 15 14" id="arrow">
    <path d="M9.0625 12.9062C9.375 12.5938 9.34375 12.125 9.0625 11.8125L5.28125 8.25H14.25C14.6875 8.25 15 7.90625 15 7.5V6.5C15 6.0625 14.6875 5.75 14.25 5.75L5.28125 5.75L9.0625 2.15625C9.34375 1.84375 9.34375 1.375 9.0625 1.0625L8.375 0.375C8.0625 0.09375 7.59375 0.09375 7.3125 0.375L1.21875 6.46875C0.9375 6.75 0.9375 7.21875 1.21875 7.53125L7.3125 13.5938C7.59375 13.875 8.0625 13.875 8.375 13.5938L9.0625 12.9062Z"></path>
  </symbol>
   <symbol xmlns="http://www.w3.org/2000/svg" viewBox="0 0 448 512" id="redirect">
    <path d="M256 64C256 46.33 270.3 32 288 32H415.1C415.1 32 415.1 32 415.1 32C420.3 32 424.5 32.86 428.2 34.43C431.1 35.98 435.5 38.27 438.6 41.3C438.6 41.35 438.6 41.4 438.7 41.44C444.9 47.66 447.1 55.78 448 63.9C448 63.94 448 63.97 448 64V192C448 209.7 433.7 224 416 224C398.3 224 384 209.7 384 192V141.3L214.6 310.6C202.1 323.1 181.9 323.1 169.4 310.6C156.9 298.1 156.9 277.9 169.4 265.4L338.7 96H288C270.3 96 256 81.67 256 64V64zM0 128C0 92.65 28.65 64 64 64H160C177.7 64 192 78.33 192 96C192 113.7 177.7 128 160 128H64V416H352V320C352 302.3 366.3 288 384 288C401.7 288 416 302.3 416 320V416C416 451.3 387.3 480 352 480H64C28.65 480 0 451.3 0 416V128z"></path>
  </symbol>
</svg>