<svg width="0" height="0" class="hidden">
  <symbol xmlns="http://www.w3.org/2000/svg" viewBox="0 0 24 24" id="php">
    <path d="M12 18.08c-6.63 0-12-2.72-12-6.08s5.37-6.08 12-6.08S24 8.64 24 12s-5.37 6.08-12 6.08m-5.19-7.95c.54 0 .91.1 1.09.31.18.2.22.56.13 1.03-.1.53-.29.87-.58 1.09-.28.22-.71.33-1.29.33h-.87l.53-2.76h.99m-3.5 5.55h1.44l.34-1.75h1.23c.54 0 .98-.06 1.33-.17.35-.12.67-.31.96-.58.24-.22.43-.46.58-.73.15-.26.26-.56.31-.88.16-.78.05-1.39-.33-1.82-.39-.44-.99-.65-1.82-.65H4.59l-1.28 6.58m7.25-8.33-1.28 6.58h1.42l.74-3.77h1.14c.36 0 .6.06.71.18.11.12.13.34.07.66l-.57 2.93h1.45l.59-3.07c.13-.62.03-1.07-.27-1.36-.3-.27-.85-.4-1.65-.4h-1.27L12 7.35h-1.44M18 10.13c.55 0 .91.1 1.09.31.18.2.22.56.13 1.03-.1.53-.29.87-.57 1.09-.29.22-.72.33-1.3.33h-.85l.5-2.76h1m-3.5 5.55h1.44l.34-1.75h1.22c.55 0 1-.06 1.35-.17.35-.12.65-.31.95-.58.24-.22.44-.46.58-.73.15-.26.26-.56.32-.88.15-.78.04-1.39-.34-1.82-.36-.44-.99-.65-1.82-.65h-2.75l-1.29 6.58z" fill="#1E88E5"></path>
  </symbol>
  <symbol xmlns="http://www.w3.org/2000/svg" viewBox="0 0 24 24" id="react">
    <path d="M12 10.11c1.03 0 1.87.84 1.87 1.89 0 1-.84 1.85-1.87 1.85S10.13 13 10.13 12c0-1.05.84-1.89 1.87-1.89M7.37 20c.63.38 2.01-.2 3.6-1.7-.52-.59-1.03-1.23-1.51-1.9a22.7 22.7 0 0 1-2.4-.36c-.51 2.14-.32 3.61.31 3.96m.71-5.74-.29-.51c-.11.29-.22.58-.29.86.27.06.57.11.88.16l-.3-.51m6.54-.76.81-1.5-.81-1.5c-.3-.53-.62-1-.91-1.47C13.17 9 12.6 9 12 9s-1.17 0-1.71.03c-.29.47-.61.94-.91 1.47L8.57 12l.81 1.5c.3.53.62 1 .91 1.47.54.03 1.11.03 1.71.03s1.17 0 1.71-.03c.29-.47.61-.94.91-1.47M12 6.78c-.19.22-.39.45-.59.72h1.18c-.2-.27-.4-.5-.59-.72m0 10.44c.19-.22.39-.45.59-.72h-1.18c.2.27.4.5.59.72M16.62 4c-.62-.38-2 .2-3.59 1.7.52.59 1.03 1.23 1.51 1.9.82.08 1.63.2 2.4.36.51-2.14.32-3.61-.32-3.96m-.7 5.74.29.51c.11-.29.22-.58.29-.86-.27-.06-.57-.11-.88-.16l.3.51m1.45-7.05c1.47.84 1.63 3.05 1.01 5.63 2.54.75 4.37 1.99 4.37 3.68s-1.83 2.93-4.37 3.68c.62 2.58.46 4.79-1.01 5.63-1.46.84-3.45-.12-5.37-1.95-1.92 1.83-3.91 2.79-5.38 1.95-1.46-.84-1.62-3.05-1-5.63-2.54-.75-4.37-1.99-4.37-3.68s1.83-2.93 4.37-3.68c-.62-2.58-.46-4.79 1-5.63 1.47-.84 3.46.12 5.38 1.95 1.92-1.83 3.91-2.79 5.37-1.95M17.08 12c.34.75.64 1.5.89 2.26 2.1-.63 3.28-1.53 3.28-2.26s-1.18-1.63-3.28-2.26c-.25.76-.55 1.51-.89 2.26M6.92 12c-.34-.75-.64-1.5-.89-2.26-2.1.63-3.28 1.53-3.28 2.26s1.18 1.63 3.28 2.26c.25-.76.55-1.51.89-2.26m9 2.26-.3.51c.31-.05.61-.1.88-.16-.07-.28-.18-.57-.29-.86l-.29.51m-2.89 4.04c1.59 1.5 2.97 2.08 3.59 1.7.64-.35.83-1.82.32-3.96-.77.16-1.58.28-2.4.36-.48.67-.99 1.31-1.51 1.9M8.08 9.74l.3-.51c-.31.05-.61.1-.88.16.07.28.18.57.29.86l.29-.51m2.89-4.04C9.38 4.2 8 3.62 7.37 4c-.63.35-.82 1.82-.31 3.96a22.7 22.7 0 0 1 2.4-.36c.48-.67.99-1.31 1.51-1.9z" fill="#00bcd4"></path>
  </symbol>
  <symbol xml:space="preserve" xmlns="http://www.w3.org/2000/svg" viewBox="0 0 500 500" id="sass">
    <path d="M419.047 96.227C406.855 48.39 327.54 32.67 252.472 59.336c-44.68 15.876-93.029 40.785-127.81 73.31-41.349 38.675-47.943 72.329-45.216 86.396 9.583 49.621 77.585 82.068 105.535 106.125v.144c-8.246 4.051-68.565 34.585-82.684 65.8-14.893 32.932 2.372 56.556 13.804 59.742 35.424 9.858 71.765-7.866 91.312-37.01 18.852-28.12 17.279-64.422 9.085-82.488 11.3-2.976 24.476-4.313 41.218-2.36 47.248 5.52 56.517 35.017 54.747 47.367s-11.681 19.14-14.998 21.185-4.326 2.767-4.05 4.287c.406 2.216 1.94 2.137 4.758 1.652 3.894-.655 24.804-10.042 25.709-32.827 1.14-28.934-26.587-61.302-75.684-60.45-20.216.354-32.933 2.268-42.123 5.69-.681-.774-1.363-1.548-2.084-2.308-30.35-32.382-86.46-55.285-84.088-98.823.866-15.824 6.372-57.5 107.817-108.053 83.104-41.414 149.638-30.009 161.135-4.759 16.427 36.079-35.554 103.137-121.857 112.812-32.88 3.684-50.199-9.06-54.499-13.805-4.536-4.995-5.204-5.218-6.909-4.287-2.753 1.534-1.01 5.939 0 8.574 2.583 6.712 13.15 18.603 31.176 24.516 15.863 5.204 54.459 8.062 101.157-9.99 52.282-20.255 93.12-76.523 81.124-123.549zM196.584 339.995c3.92 14.5 3.487 28.016-.564 40.247a65.289 65.289 0 0 1-3.225 7.97c-3.12 6.477-7.315 12.534-12.441 18.132-15.654 17.07-37.508 23.533-46.882 18.092-10.12-5.873-5.047-29.943 13.084-49.11 19.52-20.635 47.602-33.902 47.602-33.902l-.039-.08 2.465-1.35z" fill="#ec407a" stroke="#ec407a" stroke-width="16.286552999999998"></path>
  </symbol>
  <symbol xmlns="http://www.w3.org/2000/svg" viewBox="0 0 512 512" id="symfony">
    <path d="M256 8C119 8 8 119 8 256s111 248 248 248 248-111 248-248S393 8 256 8zm133.74 143.54c-11.47.41-19.4-6.45-19.77-16.87-.27-9.18 6.68-13.44 6.53-18.85-.23-6.55-10.16-6.82-12.87-6.67-39.78 1.29-48.59 57-58.89 113.85 21.43 3.15 36.65-.72 45.14-6.22 12-7.75-3.34-15.72-1.42-24.56 4-18.16 32.55-19 32 5.3-.36 17.86-25.92 41.81-77.6 35.7-10.76 59.52-18.35 115-58.2 161.72-29 34.46-58.4 39.82-71.58 40.26-24.65.85-41-12.31-41.58-29.84-.56-17 14.45-26.26 24.31-26.59 21.89-.75 30.12 25.67 14.88 34-12.09 9.71.11 12.61 2.05 12.55 10.42-.36 17.34-5.51 22.18-9 24-20 33.24-54.86 45.35-118.35 8.19-49.66 17-78 18.23-82-16.93-12.75-27.08-28.55-49.85-34.72-15.61-4.23-25.12-.63-31.81 7.83-7.92 10-5.29 23 2.37 30.7l12.63 14c15.51 17.93 24 31.87 20.8 50.62-5.06 29.93-40.72 52.9-82.88 39.94-36-11.11-42.7-36.56-38.38-50.62 7.51-24.15 42.36-11.72 34.62 13.6-2.79 8.6-4.92 8.68-6.28 13.07-4.56 14.77 41.85 28.4 51-1.39 4.47-14.52-5.3-21.71-22.25-39.85-28.47-31.75-16-65.49 2.95-79.67C204.23 140.13 251.94 197 262 205.29c37.17-109 100.53-105.46 102.43-105.53 25.16-.81 44.19 10.59 44.83 28.65.25 7.69-4.17 22.59-19.52 23.13z"></path>
  </symbol>
  <symbol xmlns="http://www.w3.org/2000/svg" viewBox="0 0 50 50" id="twig">
    <path d="M9.727 47.556c-.125-.223-.297-2.168-.183-2.087.034.025.171.267.304.537s.282.487.332.482c.123-.011.075-1.196-.1-2.454-.331-2.397-1.176-4.434-2.358-5.69-.2-.212-.344-.4-.319-.418.093-.067 1.327.842 1.842 1.358.293.293.735.825.981 1.182.328.474.465.618.51.533.078-.147-.21-9.903-.376-12.7-.074-1.256.063-1.023.61 1.034 1.064 4.007 1.858 7.922 2.342 11.55.086.637.173 1.173.195 1.19.022.017.092.002.157-.033.888-.484 1.524-.667 2.55-.736.727-.049.945.062.35.177-1.15.223-1.99 1.013-2.344 2.201-.315 1.061-.327 2.707-.024 3.435.152.365.037.425-1.067.56-.716.088-.977.095-1.202.037-.356-.093-1.118-.098-1.195-.009-.031.037-.243.066-.47.066-.38 0-.423-.017-.534-.215zm1.974-3.232c.152-.205.072-.412-.204-.522-.225-.091-.263-.089-.437.024-.21.137-.252.43-.08.554.18.13.607.096.72-.056zm1.248.085a.763.763 0 0 0 .214-.202c.241-.33-.352-.622-.745-.366-.406.264.08.785.531.568zm2.288 3.094c-.033-.038.117-.387.334-.774.216-.388.411-.666.433-.619.07.153-.201 1.28-.33 1.373-.15.107-.354.116-.437.02zm-7.036-.41c-.29-.344-.221-.434.14-.183.176.124.321.264.321.311 0 .164-.279.086-.46-.129zm8.649-.146c0-.053.102-.18.227-.282.25-.204.312-.113.143.208-.095.18-.37.235-.37.074zm8.065-.827c-.243-.025-.48-.088-.527-.14-.11-.125-.114-3.044-.004-3.044.045 0 .132.15.193.331.127.38.228.421.31.124.094-.337.065-3.471-.039-4.296-.449-3.55-1.865-6.124-4.342-7.89-1.086-.774-2.653-1.437-4.047-1.712-.764-.15-.522-.224.598-.182 2.364.09 4.167.707 5.847 2.002a11.044 11.044 0 0 1 2.32 2.501c.453.682.64.854.64.584 0-.07.063-.882.139-1.805.679-8.26 2.396-15.1 4.984-19.86 1.86-3.422 5.108-6.817 7.885-8.244 1.397-.717 2.539-.988 4.02-.952.933.023 1.01.036 1.77.308a6.822 6.822 0 0 1 1.363.661c.612.407 1.309 1.004 1.234 1.058-.025.018-.342-.165-.704-.407-2.657-1.771-5.062-1.52-7.12.742-1.108 1.22-2.652 3.53-3.634 5.443-2.828 5.503-4.541 11.464-5.291 18.413-.163 1.509-.282 3.76-.195 3.703.032-.022.266-.52.518-1.108 1.597-3.723 3.578-6.428 5.79-7.908.672-.45 1.612-.904 1.714-.83.023.016-.17.22-.43.453-1.958 1.755-3.25 3.76-4.233 6.573-.938 2.68-1.366 5.588-1.369 9.299 0 1.742.189 4.385.367 5.102.125.505.08.546-.585.546-.55 0-2.306.138-3.417.27-.413.05-.816.04-1.608-.036-.58-.056-1.13-.119-1.219-.14-.164-.037-.18-.014-.198.302-.012.186-.1.203-.73.139zm2.507-6.725c.294-.11.375-.22.375-.517 0-.63-1.309-.706-1.524-.088-.074.212.13.51.42.616.297.109.413.107.73-.011zm2.369-.052c.277-.222.318-.364.174-.611-.4-.69-1.755-.307-1.428.405.121.265.299.35.738.353.227.001.387-.044.516-.147zm3.011 6.681c-.027-.05.088-.267.256-.483.879-1.135 1.22-1.545 1.285-1.545.039 0 .055.037.035.083l-.423.963c-.213.484-.445.925-.519.977-.169.122-.57.125-.634.005zm2.446-.596c0-.12.853-.683.896-.59.018.04-.056.21-.166.377-.168.258-.238.304-.464.304-.164 0-.266-.035-.266-.09zm-13.04-.124c-.176-.159-.493-.656-.461-.725.018-.038.248.1.512.309s.456.405.428.438c-.076.088-.372.074-.479-.022z" fill="#9bb92f"></path>
  </symbol>
  <symbol xmlns="http://www.w3.org/2000/svg" viewBox="0 0 24 24" id="css">
    <path d="m5 3-.65 3.34h13.59L17.5 8.5H3.92l-.66 3.33h13.59l-.76 3.81-5.48 1.81-4.75-1.81.33-1.64H2.85l-.79 4 7.85 3 9.05-3 1.2-6.03.24-1.21L21.94 3H5z" fill="#42a5f5"></path>
  </symbol>
  <symbol xmlns="http://www.w3.org/2000/svg" viewBox="0 0 24 24" id="html">
    <path d="m12 17.56 4.07-1.13.55-6.1H9.38L9.2 8.3h7.6l.2-1.99H7l.56 6.01h6.89l-.23 2.58-2.22.6-2.22-.6-.14-1.66h-2l.29 3.19L12 17.56M4.07 3h15.86L18.5 19.2 12 21l-6.5-1.8L4.07 3z" fill="#e44d26"></path>
  </symbol>
  <symbol xmlns="http://www.w3.org/2000/svg" viewBox="0 0 24 24" id="javascript">
    <path d="M3 3h18v18H3V3m4.73 15.04c.4.85 1.19 1.55 2.54 1.55 1.5 0 2.53-.8 2.53-2.55v-5.78h-1.7V17c0 .86-.35 1.08-.9 1.08-.58 0-.82-.4-1.09-.87l-1.38.83m5.98-.18c.5.98 1.51 1.73 3.09 1.73 1.6 0 2.8-.83 2.8-2.36 0-1.41-.81-2.04-2.25-2.66l-.42-.18c-.73-.31-1.04-.52-1.04-1.02 0-.41.31-.73.81-.73.48 0 .8.21 1.09.73l1.31-.87c-.55-.96-1.33-1.33-2.4-1.33-1.51 0-2.48.96-2.48 2.23 0 1.38.81 2.03 2.03 2.55l.42.18c.78.34 1.24.55 1.24 1.13 0 .48-.45.83-1.15.83-.83 0-1.31-.43-1.67-1.03l-1.38.8z" fill="#ffca28"></path>
  </symbol>
  <symbol xmlns="http://www.w3.org/2000/svg" viewBox="0 0 24 24" id="webpack">
    <path d="m19.376 15.988-7.708 4.45-7.709-4.45v-8.9l7.709-4.451 7.708 4.45z" fill="#fff" fill-opacity=".785"></path>
    <path d="M12.286 1.98c-.21 0-.41.059-.57.179l-7.9 4.44c-.32.17-.53.5-.53.88v9c0 .38.21.711.53.881l7.9 4.44c.16.12.36.18.57.18s.41-.06.57-.18l7.9-4.44c.32-.17.53-.5.53-.88v-9c0-.38-.21-.712-.53-.882l-7.9-4.44a.945.945 0 0 0-.57-.179zm0 2.15 7 3.94v2.103h-.016v5.177h.016v.54l-7 3.939-7-3.94V8.07l7-3.94zm0 2.08-4.9 2.83 4.9 2.83 4.9-2.83-4.9-2.83zm-5 5.08v3.58l4 2.309v-3.58l-4-2.31zm10 0-4 2.308v3.58l4-2.308v-3.58z" fill="#8ed6fb"></path>
    <path d="m12.286 6.21-4.9 2.83 4.9 2.83 4.9-2.83-4.9-2.83zm-5 5.08v3.58l4 2.309v-3.58l-4-2.31zm10 0-4 2.308v3.58l4-2.308v-3.58z" fill="#1c78c0"></path>
  </symbol>
</svg>